<svg xmlns="http://www.w3.org/2000/svg" width="208.86" height="190.11" viewBox="0 0 208.86 190.11">
  <g id="logo" transform="translate(-4.93 -3.91)">
    <path id="Path_1" data-name="Path 1" d="M209.59,118.06a56.276,56.276,0,0,0-9.34-13.95,50.981,50.981,0,0,0-13.54-10.56,49.032,49.032,0,0,0,10.83-8.67,52.748,52.748,0,0,0,7.45-11.38q3.375-6.765,3.39-16.52a52.315,52.315,0,0,0-52.82-52.8H94.66a67.541,67.541,0,0,1,15.77,11.43,66.564,66.564,0,0,1,12.64,17.08V29.91h32.5q12.2,0,19.63,7.44,7.455,7.455,7.45,19.63,0,12.195-7.45,19.64t-19.63,7.44H130.72v24.37h27.56q13.26,0,21.53,8.26,8.25,8.265,8.26,21.53t-8.26,21.53q-8.265,8.265-21.53,8.26H123.07v-2.78a66.564,66.564,0,0,1-12.64,17.08,67.333,67.333,0,0,1-15.77,11.43h63.62a55.473,55.473,0,0,0,39.39-16.11,55.472,55.472,0,0,0,16.12-39.4Q213.805,126.59,209.59,118.06Z" fill="#da0037"/>
    <path id="Path_2" data-name="Path 2" d="M122.72,64.64v68.65a60.642,60.642,0,0,1-4.73,24.03,59.076,59.076,0,0,1-13.13,19.28,60.882,60.882,0,0,1-19.77,12.8,60.022,60.022,0,0,1-9.4,2.95,68.275,68.275,0,0,1-15.25,1.67q-15.435,0-25.86-5.34a69.176,69.176,0,0,1-17.19-12.04A63.885,63.885,0,0,1,4.93,159.27L26.6,146.36a34.533,34.533,0,0,0,7.31,11.1,35.751,35.751,0,0,0,10.42,7.48q6.645,3.36,16.11,3.35A36.849,36.849,0,0,0,86.3,157.96a35.409,35.409,0,0,0,7.86-11.25A33.635,33.635,0,0,0,97,132.97V64.96a33.554,33.554,0,0,0-2.84-13.73A35.409,35.409,0,0,0,86.3,39.98,36.916,36.916,0,0,0,60.44,29.64q-9.48,0-16.11,3.78a38.176,38.176,0,0,0-10.42,8.26A38.649,38.649,0,0,0,26.6,53.43L4.93,40.53A73.9,73.9,0,0,1,17.39,22.22,77.3,77.3,0,0,1,34.58,9.69Q45.005,3.915,60.44,3.91A67.693,67.693,0,0,1,75.69,5.59a62.034,62.034,0,0,1,29.17,15.75,58.874,58.874,0,0,1,13.13,19.28A60.454,60.454,0,0,1,122.72,64.64Z" fill="#ededed"/>
    <g id="Group_17" data-name="Group 17">
      <g id="Group_2" data-name="Group 2">
        <g id="Group_1" data-name="Group 1">
          <path id="Path_3" data-name="Path 3" d="M29.75,77.78,93.61,94.72,29.75,53.78Z" fill="#da0037"/>
        </g>
      </g>
      <g id="Group_4" data-name="Group 4">
        <g id="Group_3" data-name="Group 3">
          <path id="Path_4" data-name="Path 4" d="M7.16,131.49l18.58,13V122.38Z" fill="#da0037"/>
        </g>
      </g>
      <g id="Group_6" data-name="Group 6">
        <g id="Group_5" data-name="Group 5">
          <path id="Path_5" data-name="Path 5" d="M7.16,66.98l18.58,9.1V53.97Z" fill="#da0037"/>
        </g>
      </g>
      <g id="Group_8" data-name="Group 8">
        <g id="Group_7" data-name="Group 7">
          <path id="Path_6" data-name="Path 6" d="M29.75,120.68v24l63.86-40.94Z" fill="#da0037"/>
        </g>
      </g>
      <g id="Group_10" data-name="Group 10">
        <g id="Group_9" data-name="Group 9">
          <path id="Path_7" data-name="Path 7" d="M5.69,95.17l18.8-15.8L5.69,70.16Z" fill="#ededed"/>
        </g>
      </g>
      <g id="Group_12" data-name="Group 12">
        <g id="Group_11" data-name="Group 11">
          <path id="Path_8" data-name="Path 8" d="M5.69,128.31l18.8-9.21L5.69,103.3Z" fill="#ededed"/>
        </g>
      </g>
      <g id="Group_14" data-name="Group 14">
        <g id="Group_13" data-name="Group 13">
          <path id="Path_9" data-name="Path 9" d="M29.75,117.15,97.29,99.23,29.75,81.32Z" fill="#ededed"/>
        </g>
      </g>
      <g id="Group_16" data-name="Group 16">
        <g id="Group_15" data-name="Group 15">
          <path id="Path_10" data-name="Path 10" d="M6.52,99.23l19.22,16.15V83.08Z" fill="#da0037"/>
        </g>
      </g>
    </g>
  </g>
</svg>
